<svg xmlns="http://www.w3.org/2000/svg" viewBox="0 0 24 24" id="likedin"><path fill="#303c42" d="M21 1H3a2 2 0 0 0-2 2v18a2 2 0 0 0 2 2h18a2 2 0 0 0 2-2V3a2 2 0 0 0-2-2ZM8 19.5a.5.5 0 0 1-.5.5h-3a.5.5 0 0 1-.5-.5v-10a.5.5 0 0 1 .5-.5h3a.5.5 0 0 1 .5.5ZM6 8a2 2 0 1 1 2-2 2 2 0 0 1-2 2Zm14 11.5a.5.5 0 0 1-.5.5h-3a.5.5 0 0 1-.5-.5V14c0-1.25-.56-2-1.5-2s-1.5.75-1.5 2v5.5a.5.5 0 0 1-.5.5h-3a.5.5 0 0 1-.5-.5v-10a.5.5 0 0 1 .5-.5h3a.5.5 0 0 1 .5.5v.31A3.83 3.83 0 0 1 15.5 9c2.73 0 4.5 2 4.5 5Z"></path></svg>